<?xml version="1.0" encoding="UTF-8"?>
<svg xmlns="http://www.w3.org/2000/svg" version="1.1" xmlns:xlink="http://www.w3.org/1999/xlink" viewBox="0 0 256 256">
  <defs>
    <style>
      .cls-1 {
        fill: url(#linear-gradient-2);
      }

      .cls-2 {
        fill: url(#linear-gradient);
        fill-opacity: 0;
      }
    </style>
    <linearGradient id="linear-gradient" x1="-592.8" y1="-592.8" x2="711.9" y2="712" gradientUnits="userSpaceOnUse">
      <stop offset="0" stop-color="#fdb62c"/>
      <stop offset="1" stop-color="#f0534b"/>
    </linearGradient>
    <linearGradient id="linear-gradient-2" x1="-264.9" y1="-230.6" x2="391.2" y2="425.6" gradientUnits="userSpaceOnUse">
      <stop offset="0" stop-color="#fdb62c"/>
      <stop offset="1" stop-color="#f0534b"/>
    </linearGradient>
  </defs>
  <!-- Generator: Adobe Illustrator 28.6.0, SVG Export Plug-In . SVG Version: 1.2.0 Build 709)  -->
  <g>
    <g id="Layer_1">
      <g id="Layer_1-2" data-name="Layer_1">
        <rect class="cls-2" width="256" height="256"/>
        <path class="cls-1" d="M182.9,175.2c.4-.5.8-.8,1.2-1.3.2-.2.5-.6.7-.8.4-.5.7-.8,1.1-1.3.2-.2.5-.6.7-.8.4-.5.7-1,1.1-1.3.2-.4.5-.6.7-1,.4-.5.7-1,1-1.4.2-.4.5-.7.6-1,.4-.5.6-1,.8-1.4.2-.4.4-.7.6-1.1.2-.5.6-1,.8-1.4.2-.4.4-.7.6-1.1.2-.5.5-1,.7-1.4.2-.4.4-.8.6-1.2.2-.5.5-1,.6-1.4.2-.5.4-.8.5-1.3.2-.5.4-1,.6-1.4.1-.5.4-1,.5-1.4.1-.5.4-1,.5-1.4.1-.5.2-1,.4-1.4s.2-.8.4-1.3c.1-.5.2-1.1.4-1.5,0-.5.2-.8.4-1.3,0-.6.2-1.1.4-1.7,0-.5.1-.8.2-1.3,0-.6.1-1.2.2-1.8,0-.4,0-.8.1-1.2,0-.7,0-1.3.1-2v-4.2c0-31.9-25.1-58-56.7-59.7h-6.7c-.7,0-1.3,0-2,.1h-.8c-.7,0-1.5.1-2.3.2h-.5c-.8.1-1.8.2-2.6.5-.4,0-.6.1-.8.2-.6.1-1.2.2-1.8.4-.4,0-.7.1-1,.2-.6.1-1.2.4-1.8.5-.2,0-.6.1-.8.2-.2,0-.4.1-.6.2l11.2-71.8c.2-1.4-.8-2.7-2.4-2.7h-31c-1.2,0-2.1.8-2.4,2l-15.1,97.2-25,151.9,30.1-60h14.3c1.2,0,2.1-.8,2.4-2l1.4-9.3c9.8,7.1,21.9,11.3,34.9,11.3s31.8-6.9,42.6-18h0c.2-.2.4-.5.6-.6h0l.4.4ZM139.7,160.9c-14.9,0-26.9-12-26.9-26.9s1.8-11.1,4.9-15.5l3.5-3.9h0c.2-.2.6-.6,1-.8h0c.4-.2.6-.6,1-.8h0c.4-.2.7-.5,1-.7h0c.4-.2.7-.5,1.1-.7h0c.4-.2.7-.5,1.1-.6h0c.4-.2.7-.4,1.1-.6h0c.4-.1.7-.4,1.1-.5h0c.4-.1.7-.4,1.1-.5h.1c.4-.1.7-.2,1.1-.4h.2c.4,0,.7-.2,1-.4h.2c.4,0,.6-.1,1-.2h.4c.2,0,.6-.1.8-.2h.5c.2,0,.6,0,.8-.1h3.9c9.8,0,18.2,5.2,23,13,2.5,4,3.9,8.8,3.9,13.9s0,1,0,1.3v2.7c0,.2,0,.6-.1.8v.5c0,.4-.1.6-.2.8v.4c0,.4-.2.6-.2,1v.2c0,.4-.2.7-.4,1v.2c-.1.4-.2.7-.4,1.1h0c-.1.5-.4.8-.5,1.2h0c-.1.4-.4.7-.6,1.1h0c-.2.4-.4.7-.6,1.1h0c-.2.4-.5.7-.7,1.1h0c-.2.4-.5.7-.7,1.1h0c-.2.4-.5.7-.7,1h0c-.2.4-.5.6-.8,1h0c-.2.4-.6.6-.8,1-4.9,5.1-11.8,8.3-19.4,8.3h0l-.4-.7Z"/>
      </g>
    </g>
  </g>
</svg>